PathFileType	4	(X/Y/Z)	C:\Users\WrightLab\Desktop\Jo\P1.2Trial14.trc
DataRate	CameraRate	NumFrames	NumMarkers	Units	OrigDataRate	OrigDataStartFrame	OrigNumFrames
100.00	100.00	       17	19	mm	100.00	587	       938
Frame#	Time	Headset_Front			Headset_Back			Headset_Left			Headset_Right			Left_Shoulder			Right_Shoulder			Sternum			C7			Left Elbow			Right Elbow			Left Wrist			Right Wrist			Left ASIS			Right ASIS			S2			Left Knee			Right Knee			Left Ankle			Right Ankle			
		X1	Y1	Z1	X2	Y2	Z2	X3	Y3	Z3	X4	Y4	Z4	X5	Y5	Z5	X6	Y6	Z6	X7	Y7	Z7	X8	Y8	Z8	X9	Y9	Z9	X10	Y10	Z10	X11	Y11	Z11	X12	Y12	Z12	X13	Y13	Z13	X14	Y14	Z14	X15	Y15	Z15	X16	Y16	Z16	X17	Y17	Z17	X18	Y18	Z18	X19	Y19	Z19	

587	5.860	-254.68895	1263.44348	-146.45186	-344.99951	1502.60779	24.61260	-414.11343	1383.61035	-77.34903	-188.19986	1354.42590	-46.58313	-514.60980	1220.30359	-21.90469	-145.60521	1247.99707	153.05608	-300.80649	1134.32764	3.66557	-384.33887	1328.76807	168.51320	-509.12961	944.61761	-86.29949	-96.29200	1014.33575	265.10068	-347.62125	852.97290	-255.39990	-40.07486	749.77850	223.73889	-466.53329	844.25446	17.55148	-206.79626	830.35028	129.49889	-446.19803	950.97974	310.93875	-569.02606	443.32266	58.49452	-228.60612	424.89819	157.55795	-753.06757	182.51007	264.65747				
588	5.870	-254.10863	1264.51367	-147.91609	-345.84442	1502.40161	25.16014	-415.04083	1384.14563	-77.86607	-187.89082	1356.47681	-47.33137	-515.74457	1220.81897	-22.19600	-146.19688	1247.67480	153.93655	-301.83676	1134.75549	2.74702	-384.56888	1328.71838	168.15590	-510.26724	945.29059	-86.95009	-96.64011	1014.04333	264.05380	-348.73099	853.34808	-256.08908	-40.12747	749.32861	222.35164	-468.28543	844.68982	16.57954	-207.08817	830.24329	128.40808	-446.58560	950.86328	310.47299	-569.61621	443.59235	57.49722	-229.05403	424.69748	156.78030	-752.22577	183.26714	264.31195				
589	5.880	-254.36613	1265.40967	-149.02594	-347.08588	1502.91992	24.39561	-415.86951	1384.60046	-78.12353	-188.40341	1357.14795	-47.53341	-516.81635	1221.40771	-22.77332	-147.13203	1248.05688	149.48921	-303.23059	1134.86707	1.51759	-384.55038	1328.74097	167.49541	-511.66644	946.14301	-87.74824	-96.60421	1013.96198	262.70801	-350.27560	855.20074	-256.71664	-40.30113	749.01654	221.23843	-469.31631	844.93079	15.57238	-208.35507	830.03723	125.65598	-446.67233	950.95850	310.00983	-569.59332	443.58737	56.53492	-229.25514	424.63580	156.30997	-751.78156	183.53117	264.18600				
590	5.890	-255.09401	1267.42334	-151.34605	-348.38980	1503.05054	24.28842	-416.83109	1384.98730	-78.65246	-190.82777	1358.33765	-48.84874	-517.63019	1221.98621	-22.98498	-146.93687	1246.66113	151.99710	-304.06641	1134.56250	1.06705	-384.82596	1329.06213	166.74872	-512.93512	946.94336	-88.46965	-97.27513	1012.46240	260.31808	-352.09753	856.36481	-258.23178	-40.58637	748.04700	219.79340	-471.29138	845.39270	14.97326	-209.11229	829.50653	124.82967	-447.25897	951.38080	309.21378	-569.98248	444.45813	55.13916	-229.70828	424.39572	155.09349	-751.39349	183.84077	264.31000				
591	5.900	-256.81021	1268.12427	-150.37212	-349.60117	1503.15759	24.79606	-417.89529	1385.34326	-78.80080	-191.61621	1358.84998	-49.28270	-518.58502	1222.72839	-23.29597	-147.18791	1246.80115	147.42859	-305.39581	1134.98718	-0.44214	-384.85645	1329.04138	166.25616	-514.41168	947.87439	-89.30929	-97.84307	1012.28076	259.35431	-354.11655	857.40204	-259.53445	-41.27740	747.57068	217.90323	-473.38077	845.89569	14.85475	-210.15170	829.32971	122.28227	-447.76889	950.72009	307.89383	-570.44269	444.32211	54.56543	-230.64221	424.63440	153.66666	-750.98230	184.40756	263.48886				
592	5.910	-257.82199	1268.86926	-151.26492	-350.84323	1504.30212	24.73401	-418.84354	1385.73108	-79.32062	-191.25780	1359.91077	-50.10148	-519.51752	1223.44263	-23.89218	-147.16458	1246.49976	146.12267	-306.47656	1135.27063	-1.37964	-384.93961	1329.19153	165.78857	-515.96527	948.43640	-89.34202	-97.88101	1011.66449	257.46964	-355.51981	857.84760	-260.20377	-41.60969	746.85156	216.72528	-474.84503	846.54633	14.05267	-211.23096	828.97681	120.46703	-449.11310	949.99292	305.11356	-571.16931	445.05182	52.72160	-230.91855	424.71671	152.68967	-750.93713	184.69817	262.86301				
593	5.920	-258.65631	1270.34216	-152.18697	-351.76260	1504.25183	25.12070	-419.92200	1386.12402	-79.49953	-192.42430	1361.09387	-51.49499	-520.69214	1224.35510	-24.14565	-147.90291	1246.33215	144.00737	-307.85593	1135.39868	-2.66253	-385.17862	1329.18982	165.18056	-517.69153	949.10632	-89.53436	-98.74737	1010.30090	254.58800	-357.55948	859.56024	-260.54166	-42.24162	746.64099	214.69131	-476.57260	847.03418	13.11571	-212.48573	829.01105	118.84717	-449.12628	951.40430	307.25125	-571.53235	445.43698	51.85051	-232.16188	424.77060	150.73967	-750.67249	185.36621	261.60480				
594	5.930	-259.46426	1271.50427	-153.74191	-353.57379	1504.80103	24.24601	-421.26132	1386.26550	-79.67721	-193.28064	1362.08411	-52.02600	-521.75421	1225.05811	-23.66483	-148.38420	1244.79480	142.55948	-309.21826	1135.86646	-4.20848	-385.25192	1328.89368	164.70604	-519.62738	949.89545	-89.81798	-99.12902	1009.84192	253.31641	-359.81390	860.77716	-261.79163	-42.93097	745.70441	212.82729	-478.26221	847.72180	12.42009	-214.11128	828.39142	116.54398	-449.26291	951.18390	306.30072	-572.87671	446.30487	48.68492	-233.23178	424.21594	149.66724	-750.42261	185.95418	260.87695				
595	5.940	-260.86322	1272.43701	-154.62801	-355.27274	1504.88342	23.66290	-422.46237	1386.60608	-79.95396	-195.71495	1363.65869	-53.45170	-523.26648	1225.71155	-23.83148	-149.18286	1244.23279	140.64685	-310.18597	1135.84180	-4.95541	-385.52710	1329.02209	164.42458	-521.61456	950.46454	-89.72572	-99.61944	1009.05286	250.23669	-361.06036	861.12024	-261.41208	-44.50038	744.83136	211.38016	-479.64484	847.70172	11.56341	-215.34692	828.05664	113.79630	-449.84314	951.40387	305.67209	-573.65527	446.44077	48.26479	-233.70688	424.02667	147.28873	-750.20575	186.40851	260.13483				
596	5.950	-262.20587	1273.70764	-155.69547	-356.10666	1504.76599	24.11010	-423.72675	1387.09302	-80.61268	-195.78842	1364.54309	-54.63393	-524.69745	1226.48584	-24.33662	-149.57797	1244.06274	138.30469	-311.82266	1135.85461	-7.23856	-385.15805	1328.67419	163.70963	-523.73303	951.50995	-90.56122	-100.07506	1007.74500	248.69699	-363.83325	862.14606	-262.07782	-45.56671	743.75623	209.63535	-483.05820	848.33362	10.25970	-216.59532	827.49615	111.37243	-450.99652	951.53973	305.22043	-575.22394	447.22116	45.20511	-235.51891	423.53064	145.82590	-750.42041	186.56351	259.75391				
597	5.960	-263.74753	1275.03833	-157.04149	-357.10703	1504.83472	24.18664	-425.07007	1387.25488	-81.00550	-197.74008	1364.88977	-56.29144	-525.92163	1227.50769	-24.57075	-149.99167	1242.53894	136.49774	-312.99780	1136.01086	-8.28249	-384.21017	1328.60327	163.76443	-526.08893	952.78375	-91.50488	-101.11700	1006.47064	245.62871	-366.69812	863.81769	-263.42953	-44.57158	743.05225	206.89790	-487.22897	847.44464	9.64983	-217.91193	826.78448	109.75691	-451.63559	951.41724	304.10776	-575.50317	446.76678	43.86821	-236.51308	423.43146	144.32410	-750.71631	187.16464	258.99619				
598	5.970	-265.27060	1276.20581	-158.91687	-358.65601	1505.44885	23.80444	-426.42053	1387.87659	-81.50082	-198.35735	1365.62329	-57.66609	-527.22076	1228.43982	-24.03811	-149.81004	1241.66968	136.32214	-315.28745	1136.10449	-9.62079	-385.08109	1328.62305	162.08380	-528.46167	954.01758	-92.41565	-101.21785	1005.45856	243.44707	-370.07773	865.45410	-264.84839	-45.86842	742.04315	204.48659	-488.99371	847.85120	8.68776	-219.84291	826.55286	106.37305	-452.48499	951.53503	303.54480	-577.42816	448.02252	41.17852	-238.25957	423.54388	141.33438	-751.17426	187.65921	258.58542				
599	5.980	-266.54208	1276.96704	-160.26749	-359.91028	1505.77930	23.36700	-428.02975	1388.09863	-81.05124	-199.91679	1367.32605	-59.31998	-528.96216	1229.10730	-23.60138	-150.47588	1240.28223	134.06282	-316.49554	1135.83997	-10.48768	-385.12668	1328.72327	161.22902	-531.38379	954.55542	-92.81492	-101.86541	1004.42139	239.80730	-373.83194	866.89178	-266.44925	-46.39435	740.60406	202.26900	-491.37888	848.00757	7.91670	-221.93999	825.60742	104.59312	-452.57300	950.40131	301.35843	-578.35748	447.73550	38.94313	-239.68961	423.29425	140.42635	-751.73932	188.07730	257.71378				
600	5.990	-268.35059	1278.72034	-162.58595	-360.63556	1505.83386	23.60583	-429.54150	1388.61658	-81.06000	-201.38808	1367.53931	-60.48843	-530.68933	1230.14197	-24.57128	-152.14275	1239.57581	131.07100	-318.74377	1136.01099	-13.02528	-385.45859	1328.51807	160.69321	-534.18927	955.66669	-92.50409	-102.63267	1003.21155	236.93446	-377.85248	868.76678	-268.59195	-47.45181	739.85767	199.70453	-493.95370	848.31342	7.34566	-223.43999	824.54419	102.65829	-454.48795	951.35284	301.65363	-580.40442	448.53790	36.83945	-241.25481	422.48776	138.14819	-752.16833	188.31091	256.04105				
601	6.000	-270.18054	1279.50574	-163.41373	-361.92075	1506.19202	23.51452	-431.17627	1389.10596	-81.41692	-202.43347	1369.19812	-62.31147	-532.06982	1231.22717	-26.16294	-151.81290	1237.97693	125.67079	-320.95053	1136.16821	-14.90550	-385.22177	1328.31738	160.00597	-539.19678	957.84332	-94.45495	-104.08627	1000.70581	233.09177	-382.36768	869.97113	-269.04974	-49.03351	738.01080	197.36092	-496.32098	849.18805	5.40455	-225.07343	824.10931	99.06690	-454.28204	951.43115	300.84354	-582.83807	449.34601	33.27371	-242.90517	421.71548	136.19588	-752.86145	187.66440	254.13074				
602	6.010	-272.27637	1280.80908	-164.82098	-362.60123	1506.54883	23.82217	-432.69757	1389.97864	-81.79021	-203.95807	1369.82312	-64.23009	-533.64447	1232.14966	-26.22949	-152.60193	1237.42395	124.87798	-322.23343	1135.89331	-16.37729	-385.27963	1328.18054	159.50505	-540.91138	957.45605	-92.91163	-104.64362	1000.03796	231.77182	-387.27386	871.88000	-271.22357	-49.31498	736.99786	194.36250	-499.15671	849.25183	4.85831	-227.13908	823.75183	96.09049	-454.57864	950.09882	297.78467	-584.92145	450.65234	30.29858	-243.95656	421.47180	134.42357	-753.81073	186.38545	251.05891				
603	6.020	-274.27652	1281.38489	-166.79918	-362.93262	1506.39905	23.46423	-434.45728	1390.55762	-81.90591	-205.62120	1370.40466	-65.36395	-535.56177	1233.41638	-27.25389	-153.02298	1236.30212	122.08180	-324.93100	1135.80493	-18.77218	-384.90500	1327.75708	157.96678	-546.19647	959.83813	-94.37030	-105.66630	999.48840	230.17786	-392.52905	873.33496	-272.46432	-50.05641	735.30499	191.96265	-502.03760	849.66803	4.19779	-229.26019	822.97913	93.73295	-455.03885	949.74542	296.25940	-587.41467	451.62610	27.74431	-245.65102	421.42545	132.29546	-754.38940	184.91060	246.89522				
